<?xml version="1.0" encoding="iso-8859-1"?>
<!-- Generator: Adobe Illustrator 16.0.0, SVG Export Plug-In . SVG Version: 6.00 Build 0)  -->
<!DOCTYPE svg PUBLIC "-//W3C//DTD SVG 1.1//EN" "http://www.w3.org/Graphics/SVG/1.1/DTD/svg11.dtd">
<svg version="1.1" id="Capa_1" xmlns="http://www.w3.org/2000/svg" xmlns:xlink="http://www.w3.org/1999/xlink" x="0px" y="0px"
	 width="612px" height="612px" viewBox="0 0 612 612" style="enable-background:new 0 0 612 612;" xml:space="preserve">
<g>
	<g>
		<g id="group-37svg">
			<path id="path-1_31_" d="M568.286,519.714c0,50.972-41.316,92.286-92.287,92.286H136c-50.971,0-92.286-41.314-92.286-92.286
				V92.286C43.714,41.315,85.029,0,136,0h340c50.971,0,92.287,41.315,92.287,92.286V519.714z M539.142,92.286
				c0-34.874-28.268-63.143-63.143-63.143H136c-34.875,0-63.143,28.269-63.143,63.143v427.428c0,34.875,28.269,63.144,63.143,63.144
				h340c34.875,0,63.143-28.269,63.143-63.144V92.286z"/>
			<path id="path-2_31_" d="M480.856,587.714c0,8.044-6.527,14.572-14.57,14.572h-77.715c-8.043,0-14.572-6.528-14.572-14.572
				V14.571C373.999,6.519,380.528,0,388.571,0h77.715c8.043,0,14.57,6.519,14.57,14.571V587.714z M403.142,573.143h48.572v-544
				h-48.572V573.143z"/>
			<path id="path-3_30_" d="M296.995,255.233c-4.479,0-8.821-2.069-11.628-5.78l-41.8-55.333l-41.801,55.333
				c-3.779,4.993-8.276,7.004-14.183,5.022c-5.945-1.992-7.869-7.548-7.869-13.814V14.571c0-8.043,2.38-14.571,10.423-14.571
				h106.857c8.043,0,18.719,6.528,18.719,14.571v226.09c0,6.266-6.072,11.822-12.007,13.814
				C302.172,254.99,298.539,255.233,296.995,255.233z M243.566,155.38c4.575,0,10.938,2.147,13.707,5.79l29.298,36.04V29.143
				h-77.714V197.21l25.16-36.04C236.766,157.527,238.99,155.38,243.566,155.38z"/>
		</g>
	</g>
</g>
<g>
</g>
<g>
</g>
<g>
</g>
<g>
</g>
<g>
</g>
<g>
</g>
<g>
</g>
<g>
</g>
<g>
</g>
<g>
</g>
<g>
</g>
<g>
</g>
<g>
</g>
<g>
</g>
<g>
</g>
</svg>
