<svg width="24" height="17" fill="none" xmlns="http://www.w3.org/2000/svg" class="menu-nav__icon-svg"><path fill-rule="evenodd" clip-rule="evenodd" d="M1.5.25a.75.75 0 000 1.5h13a.75.75 0 000-1.5h-13zm9.75 8.77a4.27 4.27 0 117.299 3.01l-.01.01-.008.009a4.27 4.27 0 01-7.28-3.029zm10.04 0a5.745 5.745 0 01-1.194 3.515l2.934 2.935a.75.75 0 01-1.06 1.06l-2.934-2.934A5.77 5.77 0 1121.29 9.02zM.75 7a.75.75 0 01.75-.75h4a.75.75 0 010 1.5h-4A.75.75 0 01.75 7zm.75 5.25a.75.75 0 000 1.5h6a.75.75 0 000-1.5h-6z" fill="#AFAFAF"></path></svg>
