<svg width="35" height="39" viewBox="0 0 35 39" fill="none" xmlns="http://www.w3.org/2000/svg">
<path d="M0.0518188 0.414857V0.248779H14.9987C20.9037 0.248779 25.5723 2.00181 29.0046 5.50788C32.4737 8.97704 34.2083 13.6087 34.2083 19.403C34.2083 25.0496 32.3814 29.7366 28.7278 33.4641C25.0741 37.1547 20.4977 39 14.9987 39H0.0518188V38.834H3.53943V0.414857H0.0518188ZM14.5005 0.414857H9.29676V38.834H14.5559C18.837 38.834 22.1216 37.0809 24.4098 33.5749C26.6979 30.0688 27.842 25.4556 27.842 19.7351C27.842 14.273 26.6426 9.67826 24.2437 5.95075C21.8817 2.26016 18.634 0.414857 14.5005 0.414857Z" fill="#6E6D87"/>
</svg>
