<?xml version="1.0" ?><svg viewBox="0 0 64 64" xmlns="http://www.w3.org/2000/svg"><g id="Product_delivery"><path d="M12.1719,3.9982,6.0476,12.57a.6819.6819,0,0,0,.5542,1.0781l17.312.0166L31.1692,3.433H13.27A1.35,1.35,0,0,0,12.1719,3.9982Z"/><path d="M57.7119,12.6264,51.5476,3.9982A1.3506,1.3506,0,0,0,50.449,3.433H32.56l7.2334,10.2549,17.3628.0166A.6818.6818,0,0,0,57.7119,12.6264Z"/><path d="M37.99,15.8154,33.21,9.039V29.9077H50.449a1.75,1.75,0,0,0,1.75-1.75V16.4l-13.1075-.0126A1.3519,1.3519,0,0,1,37.99,15.8154Z"/><path d="M24.6111,16.3657h-.002L11.52,16.3764V28.1577a1.75,1.75,0,0,0,1.75,1.75h17.24V9.03l-4.7979,6.7661A1.3519,1.3519,0,0,1,24.6111,16.3657Z"/><path d="M15.1052,37.15H8.5471a1.0432,1.0432,0,0,0-1.0432,1.0434V60.5751a1.0434,1.0434,0,0,0,1.0432,1.0435h6.5581A2.2744,2.2744,0,0,0,17.38,59.3442v-19.92A2.2744,2.2744,0,0,0,15.1052,37.15Z"/><path d="M56.3279,39.7783a3.8042,3.8042,0,0,0-3.1846-1.7159h-2.57a5.5493,5.5493,0,0,0-5.1455,3.4429,5.75,5.75,0,0,1-1.0239,1.6192A8.3784,8.3784,0,0,1,37.72,46.9233l-7.6123.0005a1.35,1.35,0,0,1,0-2.7h7.5762a5.0783,5.0783,0,0,0,2.7244-.8766l0-.0458A5.219,5.219,0,0,0,35.19,38.0624h-5.586a7.7366,7.7366,0,0,0-5.497,2.2706l-.1426.142a7.2457,7.2457,0,0,1-3.8858,2.0127V57.3989H40.45A15.4305,15.4305,0,0,0,54.64,48.0522l2.0068-4.6709A3.802,3.802,0,0,0,56.3279,39.7783Z"/></g></svg>